<svg width="366" height="85" viewBox="0 0 366 85" fill="none" xmlns="http://www.w3.org/2000/svg">
<path d="M13 34.2308L36.1 59L79 13" stroke="url(#paint0_linear)" stroke-opacity="0.9" stroke-width="25" stroke-linecap="round" stroke-linejoin="round"/>
<path d="M18 40.6923L35.15 59L67 25" stroke="white" stroke-width="4" stroke-linecap="round" stroke-linejoin="round"/>
<path d="M129.32 19C135.573 19 140.473 20.4933 144.02 23.48C147.567 26.4667 149.34 30.5733 149.34 35.8C149.34 41.0267 147.567 45.1333 144.02 48.12C140.473 51.06 135.573 52.53 129.32 52.53H116.16V68H110.98V19H129.32ZM129.18 47.98C134.033 47.98 137.743 46.93 140.31 44.83C142.877 42.6833 144.16 39.6733 144.16 35.8C144.16 31.8333 142.877 28.8 140.31 26.7C137.743 24.5533 134.033 23.48 129.18 23.48H116.16V47.98H129.18ZM158.074 16.06H163.044V68H158.074V16.06ZM187.653 30.9C192.46 30.9 196.146 32.1133 198.713 34.54C201.28 36.92 202.563 40.4667 202.563 45.18V68H197.803V62.26C196.683 64.1733 195.026 65.6667 192.833 66.74C190.686 67.8133 188.12 68.35 185.133 68.35C181.026 68.35 177.76 67.37 175.333 65.41C172.906 63.45 171.693 60.86 171.693 57.64C171.693 54.5133 172.813 51.9933 175.053 50.08C177.34 48.1667 180.956 47.21 185.903 47.21H197.593V44.97C197.593 41.7967 196.706 39.3933 194.933 37.76C193.16 36.08 190.57 35.24 187.163 35.24C184.83 35.24 182.59 35.6367 180.443 36.43C178.296 37.1767 176.453 38.2267 174.913 39.58L172.673 35.87C174.54 34.2833 176.78 33.07 179.393 32.23C182.006 31.3433 184.76 30.9 187.653 30.9ZM185.903 64.43C188.703 64.43 191.106 63.8 193.113 62.54C195.12 61.2333 196.613 59.3667 197.593 56.94V50.92H186.043C179.743 50.92 176.593 53.1133 176.593 57.5C176.593 59.6467 177.41 61.35 179.043 62.61C180.676 63.8233 182.963 64.43 185.903 64.43ZM232.722 30.9C237.342 30.9 241.005 32.2533 243.712 34.96C246.465 37.62 247.842 41.5167 247.842 46.65V68H242.872V47.14C242.872 43.3133 241.915 40.3967 240.002 38.39C238.089 36.3833 235.359 35.38 231.812 35.38C227.845 35.38 224.695 36.57 222.362 38.95C220.075 41.2833 218.932 44.5267 218.932 48.68V68H213.962V31.18H218.722V37.97C220.075 35.73 221.942 34.0033 224.322 32.79C226.749 31.53 229.549 30.9 232.722 30.9ZM277.995 30.9C282.615 30.9 286.278 32.2533 288.985 34.96C291.738 37.62 293.115 41.5167 293.115 46.65V68H288.145V47.14C288.145 43.3133 287.188 40.3967 285.275 38.39C283.362 36.3833 280.632 35.38 277.085 35.38C273.118 35.38 269.968 36.57 267.635 38.95C265.348 41.2833 264.205 44.5267 264.205 48.68V68H259.235V31.18H263.995V37.97C265.348 35.73 267.215 34.0033 269.595 32.79C272.022 31.53 274.822 30.9 277.995 30.9ZM336.705 51.13H305.905C306.185 54.9567 307.655 58.06 310.315 60.44C312.975 62.7733 316.335 63.94 320.395 63.94C322.682 63.94 324.782 63.5433 326.695 62.75C328.608 61.91 330.265 60.6967 331.665 59.11L334.465 62.33C332.832 64.29 330.778 65.7833 328.305 66.81C325.878 67.8367 323.195 68.35 320.255 68.35C316.475 68.35 313.115 67.5567 310.175 65.97C307.282 64.3367 305.018 62.0967 303.385 59.25C301.752 56.4033 300.935 53.1833 300.935 49.59C300.935 45.9967 301.705 42.7767 303.245 39.93C304.832 37.0833 306.978 34.8667 309.685 33.28C312.438 31.6933 315.518 30.9 318.925 30.9C322.332 30.9 325.388 31.6933 328.095 33.28C330.802 34.8667 332.925 37.0833 334.465 39.93C336.005 42.73 336.775 45.95 336.775 49.59L336.705 51.13ZM318.925 35.17C315.378 35.17 312.392 36.3133 309.965 38.6C307.585 40.84 306.232 43.78 305.905 47.42H332.015C331.688 43.78 330.312 40.84 327.885 38.6C325.505 36.3133 322.518 35.17 318.925 35.17ZM349.551 38.39C350.718 35.9167 352.444 34.05 354.731 32.79C357.064 31.53 359.934 30.9 363.341 30.9V35.73L362.151 35.66C358.278 35.66 355.244 36.85 353.051 39.23C350.858 41.61 349.761 44.9467 349.761 49.24V68H344.791V31.18H349.551V38.39Z" fill="black"/>
<defs>
<linearGradient id="paint0_linear" x1="39.5" y1="18.5" x2="37" y2="69.5" gradientUnits="userSpaceOnUse">
<stop stop-color="#51F9CD"/>
<stop offset="1" stop-color="#4799F9"/>
</linearGradient>
</defs>
</svg>
